<svg xmlns="http://www.w3.org/2000/svg" viewBox="0 0 128 128" role="img" aria-labelledby="title desc">
  <title id="title">Granville Swim Tracker Icon</title>
  <desc id="desc">Stylized swimmer over waves representing the Granville Swim Tracker progressive web app.</desc>
  <defs>
    <linearGradient id="bg" x1="0" y1="0" x2="1" y2="1">
      <stop offset="0%" stop-color="#0f172a" />
      <stop offset="100%" stop-color="#1e3a8a" />
    </linearGradient>
  </defs>
  <rect width="128" height="128" rx="20" fill="url(#bg)" />
  <g fill="#38bdf8">
    <path d="M26 84c8 6 16 10 28 10s20-4 28-10 16-10 28-10 20 4 28 10v10c-8 6-16 10-28 10s-20-4-28-10-16-10-28-10-20 4-28 10V84z" opacity="0.35" />
    <path d="M20 72c10 8 22 12 34 12s24-4 34-12c10-7 22-12 34-12v12c-12 0-22 4-32 10-10 7-22 12-36 12s-26-5-36-12V72z" opacity="0.55" />
  </g>
  <path d="M44 54c0-8 8-14 18-14s18 6 18 14-8 14-18 14S44 62 44 54z" fill="#bae6fd" />
  <path d="M24 64c10-10 22-18 38-18s28 8 38 18l-14 6c-6-6-14-10-24-10s-18 4-24 10L24 64z" fill="#e0f2fe" />
</svg>
